<?xml version="1.0" encoding="UTF-8" standalone="no"?>
<svg
   xmlns:dc="http://purl.org/dc/elements/1.1/"
   xmlns:cc="http://creativecommons.org/ns#"
   xmlns:rdf="http://www.w3.org/1999/02/22-rdf-syntax-ns#"
   xmlns:svg="http://www.w3.org/2000/svg"
   xmlns="http://www.w3.org/2000/svg"
   xmlns:sodipodi="http://sodipodi.sourceforge.net/DTD/sodipodi-0.dtd"
   xmlns:inkscape="http://www.inkscape.org/namespaces/inkscape"
   width="24"
   height="28"
   viewBox="0 0 24 28.000001"
   version="1.1"
   id="svg2"
   inkscape:version="0.91 r13725"
   sodipodi:docname="dn_heart.svg">
  <metadata
     id="metadata12">
    <rdf:RDF>
      <cc:Work
         rdf:about="">
        <dc:format>image/svg+xml</dc:format>
        <dc:type
           rdf:resource="http://purl.org/dc/dcmitype/StillImage" />
        <dc:title></dc:title>
      </cc:Work>
    </rdf:RDF>
  </metadata>
  <defs
     id="defs10" />
  <sodipodi:namedview
     pagecolor="#ffffff"
     bordercolor="#666666"
     borderopacity="1"
     objecttolerance="10"
     gridtolerance="10"
     guidetolerance="10"
     inkscape:pageopacity="0"
     inkscape:pageshadow="2"
     inkscape:window-width="1920"
     inkscape:window-height="1027"
     id="namedview8"
     showgrid="true"
     inkscape:zoom="26.971429"
     inkscape:cx="11.990705"
     inkscape:cy="13.600166"
     inkscape:window-x="-8"
     inkscape:window-y="-8"
     inkscape:window-maximized="1"
     inkscape:current-layer="g4">
    <inkscape:grid
       type="xygrid"
       id="grid4140" />
  </sodipodi:namedview>
  <g
     transform="translate(-4.0898341,-1015.396)"
     id="g4">
    <path
       d="m 10.798602,1021.3983 c -0.778134,-0.043 -1.5182561,0.051 -2.1220051,0.375 -2.288429,1.2253 -3.7855975,4.054 -1.2618658,8.1082 2.3341918,3.7496 8.6654689,8.5254 8.6654689,8.5254 l 0.01311,-14.6739 c 0,0 -2.979336,-2.2063 -5.294706,-2.3347 z m 10.565662,0 c -2.315372,0.1284 -5.268492,2.3347 -5.268492,2.3347 l -0.01311,14.6739 c 0,0 6.331279,-4.7758 8.665471,-8.5254 2.523731,-4.0542 1.026563,-6.8829 -1.261866,-8.1082 -0.603749,-0.3233 -1.343872,-0.418 -2.122005,-0.375 z"
       id="path6"
       inkscape:connector-curvature="0"
       style="fill:#ff0000"
       sodipodi:nodetypes="ccscccsccscs" />
  </g>
</svg>
